<?xml version="1.0" encoding="UTF-8"?>
<svg width="210mm" height="297mm" version="1.1" viewBox="0 0 744.09448819 1052.3622047" xmlns="http://www.w3.org/2000/svg">
 <g stroke="#000">
  <path d="m514.37 54.897s22.482-59.149 46.058 7.3619c23.576 66.511-45.781 16.964-45.781 16.964s63.469 18.741 24.156 58.451c-39.314 39.71-58.438-4.2009-58.438-4.2009s-14.566 61.744-25.485 16.398 21.033-38.998 21.033-38.998-48.929-23.772-25.736-64.641 62.613 2.4754 62.613 2.4754" fill="#fea" fill-rule="evenodd" stroke-width="8"/>
  <path d="m633.4 106.3s62.801 7.7546 3.8139 46.486c-58.987 38.732-27.375-40.426-27.375-40.426s-3.0932 66.106-51.02 37.376c-47.927-28.731-9.8313-57.758-9.8313-57.758s-63.436 0.55107-21.993-20.849c41.443-21.4 42.884 11.145 42.884 11.145s11.441-53.182 56.656-40.384c45.215 12.797 12.501 61.402 12.501 61.402" fill="#fea" fill-rule="evenodd" stroke-width="8"/>
  <path d="m359.31 119.33s-42.54 46.845-40.183-23.682c2.3566-70.527 48.814 0.9366 48.814 0.9366s-52.233-40.636-1.128-63.235 52.862 25.263 52.862 25.263 36.119-52.152 29.714-5.9519c-6.4051 46.2-33.828 28.617-33.828 28.617s36.86 40.007 0.33737 69.575c-36.522 29.568-57.379-25.182-57.379-25.182" fill="#fea" fill-rule="evenodd" stroke-width="8"/>
  <path d="m296.07 61.225s-60.609-18.183 4.0406-46.467c64.65-28.284 20.203 44.447 20.203 44.447s14.142-64.65 56.569-28.284c42.426 36.365 0 58.589 0 58.589s62.629 10.102 18.183 24.244c-44.447 14.142-40.406-18.183-40.406-18.183s-20.203 50.508-62.629 30.305-2.0203-62.629-2.0203-62.629" fill="#fea" fill-rule="evenodd" stroke-width="8"/>
  <path d="m335.61 127.71s54.658 31.885-14.821 44.225-9.2205-47.944-9.2205-47.944-28.904 59.533-61.623 14.235 13.735-56.956 13.735-56.956-58.516-24.502-11.993-27.831c46.523-3.3285 35.018 27.148 35.018 27.148s31.48-44.364 67.988-14.778-12.718 61.358-12.718 61.358" fill="#fea" fill-rule="evenodd" stroke-width="8"/>
  <path d="m228.39 54.204s18.23-60.595 46.464 4.0765c28.234 64.672-44.462 20.169-44.462 20.169s64.639 14.192 28.241 56.59-58.589-0.0453-58.589-0.0453-10.15 62.622-24.258 18.164 18.214-40.392 18.214-40.392-50.492-20.242-30.256-62.653 62.631-1.9719 62.631-1.9719" fill="#fea" fill-rule="evenodd" stroke-width="8"/>
  <path d="m179.16 64.202s52.387-35.492 33.465 32.49-47.216-12.422-47.216-12.422 41.177 51.808-13.816 61.718c-54.993 9.9101-45.414-37.017-45.414-37.017s-47.399 42.164-30.28-1.2232c17.12-43.387 39.623-19.832 39.623-19.832s-26.386-47.571 16.079-67.692c42.465-20.122 49.822 38.003 49.822 38.003" fill="#fea" fill-rule="evenodd" stroke-width="8"/>
  <path d="m96.975 112.92s-60.609-18.183 4.0406-46.467c64.65-28.284 20.203 44.447 20.203 44.447s14.142-64.65 56.569-28.284c42.426 36.365 0 58.589 0 58.589s62.629 10.102 18.183 24.244c-44.447 14.142-40.406-18.183-40.406-18.183s-20.203 50.508-62.629 30.305-2.0203-62.629-2.0203-62.629" fill="#fea" fill-rule="evenodd" stroke-width="8"/>
  <path d="m60.609 155.35 111.12 662.66 426.28 10.102 72.731-753.57s-16.162 38.386-56.569 38.386-60.609-44.447-62.629-38.386c-2.0203 6.0609-30.305 56.569-64.65 38.386s-46.467-40.406-46.467-40.406-24.244 52.528-54.548 42.426c-30.305-10.102-48.487-40.406-48.487-40.406s-14.142 52.528-42.426 40.406-44.447-36.365-44.447-36.365-26.264 68.69-54.548 50.508c-28.284-18.183-48.487-42.426-48.487-42.426s4.0406 96.975-36.365 68.69c-40.406-28.284-62.629-54.548-62.629-54.548z" fill="none" stroke-width="8"/>
  <path d="m125.26 157.37 109.1 658.62" fill="none" stroke-width="8"/>
  <path d="m208.09 129.08 80.812 688.92" fill="none" stroke-width="8"/>
  <path d="m305.07 114.94 30.305 705.09" fill="none" stroke-width="8"/>
  <path d="m391.94 116.96v705.09" fill="none" stroke-width="8"/>
  <path d="m499.02 116.96-36.365 705.09" fill="none" stroke-width="8"/>
  <path d="m608.11 114.94-74.751 709.13" fill="none" stroke-width="8"/>
  <path d="m191.45 813.33c-8.6116-0.37871-15.657-1.0472-15.657-1.4854 0-3.9988-111.87-665.69-114.09-674.83-1.6203-6.667-2.9784-13.236-3.018-14.598-0.03958-1.3618 9.7013 5.7088 21.646 15.713 11.945 10.004 25.979 20.209 31.187 22.679 6.6226 3.1406 9.8071 6.0088 10.593 9.5413 1.5442 6.9375 106.21 640.14 106.21 642.55 0 1.8665-3.2742 1.9045-36.871 0.42699z" fill="#f55" stroke-width="8"/>
  <path d="m295.76 815.31c-1.3734-0.90011-17.886-134.67-41.955-339.89-37.521-319.91-39.495-338.54-36.121-340.95 9.5361-6.8168 20.458-19.63 26.715-31.341l6.9249-12.961 13.914 11.683c7.6529 6.4256 18.842 13.726 24.865 16.222 10.755 4.4575 10.951 4.6887 10.951 12.884 0 4.59 6.364 155.96 14.142 336.38 7.7782 180.42 14.142 332.87 14.142 338.78v10.737l-15.657-0.0309c-8.6116-0.0162-16.677-0.69887-17.922-1.5152z" fill="#f55" stroke-width="8"/>
  <path d="m396.01 470.31c0-330.19 0.18641-348.63 3.5355-349.7 11.278-3.624 15.499-6.1233 23.031-13.635 4.597-4.5848 10.611-11.729 13.363-15.875l5.0052-7.5393 13.676 12.662c7.5217 6.9639 19.182 15.357 25.911 18.651 11.883 5.8167 12.239 6.2223 12.343 14.071 0.0592 4.4447-7.6195 157.6-17.064 340.34-9.4444 182.74-17.172 336.16-17.172 340.93v8.6674h-62.63v-348.57z" fill="#f55" stroke-width="8"/>
  <path d="m543.99 821.49c-2.5001-0.48156-4.5457-2.2644-4.5457-3.9619s16.364-158.3 36.365-348 36.365-346.44 36.365-348.31c0-2.3763 1.7081-3.3946 5.6942-3.3946 10.096 0 25.77-5.8472 35.414-13.211 8.2287-6.2831 9.3991-6.6847 9.3991-3.2255 0 2.1732-15.455 163.99-34.345 359.59s-34.345 357.06-34.345 358.79c0 2.6763-3.3867 3.1039-22.728 2.8698-12.501-0.15132-24.774-0.66913-27.274-1.1507z" fill="#f55" stroke-width="8"/>
  <path d="m185.59 490.17-53.744-324.66 5.7672-5.7672c7.3237-7.3237 11.913-22.223 13.364-43.385l1.1398-16.624 12.05 11.156c14.452 13.38 31.443 25.123 36.352 25.123 1.9594 0 3.5625 0.59408 3.5625 1.3202s17.728 152.35 39.396 336.95 39.396 336.74 39.396 338.09c0 1.7799-6.013 2.4592-21.769 2.4592h-21.769l-53.744-324.66z" fill="#e6e6e6" stroke-width="8"/>
  <path d="m359.13 817.37-19.698-0.66048v-9.7812c0-5.3796-6.364-157.61-14.142-338.29-7.7782-180.68-14.107-332.84-14.064-338.14 0.0696-8.6174 0.76435-10.069 6.566-13.718 5.462-3.435 17.652-20.334 20.228-28.042 0.40849-1.2223 5.6663 2.5974 11.684 8.4882 11.589 11.345 23.847 19.456 32.796 21.702l5.4198 1.3603v698.58l-4.5457-0.42283c-2.5001-0.23255-13.41-0.72003-24.244-1.0833z" fill="#e6e6e6" stroke-width="8"/>
  <path d="m468.74 810.94c0-5.476 7.725-159.35 17.167-341.94 9.4416-182.59 17.169-335.29 17.173-339.33 5e-3 -6.7259 0.57729-7.4585 6.7204-8.6109 10.773-2.021 24.559-12.093 33.925-24.784 4.7822-6.48 8.8534-12.055 9.0472-12.389 0.19375-0.33416 5.3067 4.3469 11.362 10.402 10.548 10.548 28.316 21.52 34.848 21.52 1.7876 0 3.0976 1.7721 3.0976 4.1902 0 2.3046-16.364 159.27-36.365 348.8-20.001 189.54-36.365 346.29-36.365 348.35 0 3.4765-2.1521 3.7423-30.305 3.7423h-30.305v-9.9564z" fill="#fff" stroke-width="8"/>
  <path d="m363.19 403.84a72.27 112.68 0 0 1 -71.805 112.67 72.27 112.68 0 0 1 -72.73 -111.22 72.27 112.68 0 0 1 70.867 -114.11 72.27 112.68 0 0 1 73.643 109.75" fill="#fff" stroke-width="8.9214"/>
  <path d="m518.76 389.7a72.27 112.68 0 0 1 -71.805 112.67 72.27 112.68 0 0 1 -72.73 -111.22 72.27 112.68 0 0 1 70.867 -114.11 72.27 112.68 0 0 1 73.643 109.75" fill="#fff" stroke-width="8.9214"/>
  <path d="m331.33 406.87a38.386 59.599 0 0 1 -36.144 59.497 38.386 59.599 0 0 1 -40.366 -52.548 38.386 59.599 0 0 1 31.429 -65.635 38.386 59.599 0 0 1 44.037 44.882l-37.342 13.804z" stroke-width="8"/>
  <path d="m486.9 391.72a38.386 59.599 0 0 1 -36.144 59.497 38.386 59.599 0 0 1 -40.366 -52.548 38.386 59.599 0 0 1 31.429 -65.635 38.386 59.599 0 0 1 44.037 44.882l-37.342 13.804z" stroke-width="8"/>
  <path d="m239.62 548.61 272.58 12.957s-25.278 120.69-133.78 107.8c-108.5-12.884-138.8-120.76-138.8-120.76z" fill="#fff" fill-rule="evenodd" stroke-width="8"/>
  <path d="m296.98 630.12s92.934-16.162 119.2-2.0203c26.264 14.142 36.365 26.264 36.365 26.264" fill="none" stroke-width="8"/>
  <path d="m441.51 638.17c-26.412-19.755-41.928-23.193-88.451-19.6-16.56 1.2791-36.579 3.394-44.486 4.6998l-14.376 2.3742-11.519-12.72c-11.579-12.786-22.743-30.132-31.349-48.707-4.1513-8.9601-4.2762-10.007-1.1939-10.004 11.964 0.0133 253.74 12.232 254.36 12.854 0.42322 0.42322-1.5392 6.9032-4.361 14.4-8.5008 22.584-23.551 45.018-39.737 59.229l-7.1341 6.2638-11.752-8.7903z" stroke-width="16.162"/>
  <path d="m367.72 662.39c-21.122-4.5206-45.982-15.162-58.344-24.975l-4.8064-3.8151 22.989-2.7196c25.759-3.0472 65.604-3.7497 76.865-1.3552 4.075 0.8665 14.489 6.1973 23.142 11.846 14.774 9.6448 15.495 10.445 11.819 13.133-12.034 8.7993-48.597 12.822-71.665 7.8853z" fill="#faa" stroke-width="16.162"/>
  <path d="m200.01 813.97s-34.345 54.548-36.365 127.28c-2.0203 72.731 10.102 101.02 10.102 101.02v-2.0203" fill="none" stroke-width="10"/>
  <path d="m579.83 822.05s26.264 34.345 26.264 101.02-22.223 117.18-22.223 117.18" fill="none" stroke-width="10"/>
  <path d="m630.34 454.35c60.609 143.44 54.548 234.36 54.548 234.36l-4.0406-4.0406" fill="none" stroke-width="10"/>
  <path d="m111.02 454.31c-36.365 86.873-86.873-60.609-86.873-60.609h-2.0203" fill="none" stroke-width="10"/>
 </g>
</svg>
