<?xml version="1.0" standalone="no"?>
<!DOCTYPE svg PUBLIC "-//W3C//DTD SVG 20010904//EN"
 "http://www.w3.org/TR/2001/REC-SVG-20010904/DTD/svg10.dtd">
<svg version="1.0" xmlns="http://www.w3.org/2000/svg"
 width="512.000000pt" height="512.000000pt" viewBox="0 0 512.000000 512.000000"
 preserveAspectRatio="xMidYMid meet">

<g transform="translate(0.000000,512.000000) scale(0.100000,-0.100000)"
fill="#000000" stroke="none">
<path d="M2370 5113 c-367 -36 -649 -115 -949 -264 -667 -331 -1152 -930
-1340 -1657 -93 -358 -104 -771 -31 -1133 158 -780 666 -1442 1375 -1790 260
-127 483 -198 760 -241 187 -29 540 -31 720 -4 586 86 1088 342 1491 759 197
204 336 401 459 652 123 250 194 477 237 750 31 200 31 550 0 750 -43 277
-114 501 -242 760 -132 268 -279 473 -491 682 -201 198 -392 337 -631 459
-295 150 -580 235 -907 269 -122 13 -359 17 -451 8z m533 -178 c334 -52 621
-156 906 -327 102 -62 257 -177 331 -246 l55 -51 -390 -390 -389 -390 -73 237
c-52 170 -79 242 -94 255 -20 16 -67 17 -668 17 -544 0 -650 -2 -667 -14 -13
-10 -53 -100 -115 -260 l-94 -246 -388 0 -388 0 -24 -25 -25 -24 0 -1049 c0
-1018 1 -1050 19 -1073 18 -23 27 -24 160 -29 l141 -5 -197 -197 -198 -198
-79 94 c-288 341 -470 747 -542 1208 -25 158 -25 518 0 676 146 934 770 1668
1656 1950 160 51 306 80 540 106 75 9 430 -4 523 -19z m1463 -797 c26 -29 80
-96 119 -149 233 -312 388 -686 451 -1091 25 -158 25 -518 0 -676 -80 -514
-299 -961 -650 -1331 -28 -29 -100 -96 -160 -147 -356 -307 -784 -498 -1266
-566 -138 -19 -487 -16 -631 5 -475 70 -906 269 -1262 583 l-46 40 257 257
257 257 1378 0 1378 0 24 25 25 24 0 1051 0 1051 -25 24 -24 25 -278 0 -278 0
335 335 c184 184 338 335 342 335 3 0 28 -24 54 -52z m-1151 -498 l73 -235
-147 -148 -147 -148 -86 44 c-123 63 -206 82 -353 82 -140 -1 -211 -17 -330
-75 -151 -75 -270 -194 -345 -345 -58 -119 -74 -190 -75 -330 0 -147 19 -230
82 -353 l44 -86 -283 -283 -283 -283 -162 0 -163 0 0 940 0 940 373 0 c307 0
376 3 393 14 13 10 53 100 115 260 l94 246 564 -2 563 -3 73 -235z m865 -1220
l0 -940 -1242 0 -1243 0 222 222 221 221 62 -47 c142 -106 275 -150 460 -150
145 0 212 14 335 74 194 94 343 276 402 490 24 89 24 289 -1 380 -24 89 -76
195 -132 270 l-47 62 179 179 179 179 302 0 303 0 0 -940z m-1397 645 c66 -14
187 -62 187 -74 0 -10 -819 -826 -823 -821 -17 19 -51 104 -68 167 -24 97 -24
189 1 287 29 113 73 190 160 277 146 148 342 207 543 164z m358 -227 c177
-241 152 -567 -60 -779 -117 -117 -264 -178 -427 -179 -118 0 -280 57 -365
130 l-34 29 420 420 c231 232 423 421 427 421 5 0 22 -19 39 -42z"/>
<path d="M3705 3095 c-16 -15 -25 -36 -25 -55 0 -19 9 -40 25 -55 15 -16 36
-25 55 -25 19 0 40 9 55 25 16 15 25 36 25 55 0 19 -9 40 -25 55 -15 16 -36
25 -55 25 -19 0 -40 -9 -55 -25z"/>
</g>
</svg>
